<svg width="53" height="53" viewBox="0 0 53 53" fill="none" xmlns="http://www.w3.org/2000/svg">
<path d="M26.5 5.16538V1.52241" stroke="white" stroke-opacity="0.46" stroke-width="3" stroke-linecap="round" stroke-linejoin="round"/>
<path d="M20.9795 5.89316L20.0363 2.37331" stroke="white" stroke-opacity="0.46" stroke-width="3" stroke-linecap="round" stroke-linejoin="round"/>
<path d="M15.8326 8.02343L14.0123 4.86853" stroke="white" stroke-opacity="0.46" stroke-width="3" stroke-linecap="round" stroke-linejoin="round"/>
<path d="M11.4159 11.4158L8.8392 8.83907" stroke="white" stroke-opacity="0.46" stroke-width="3" stroke-linecap="round" stroke-linejoin="round"/>
<path d="M8.02355 15.8328L4.86865 14.0124" stroke="white" stroke-opacity="0.46" stroke-width="3" stroke-linecap="round" stroke-linejoin="round"/>
<path d="M5.89316 20.9795L2.37331 20.0363" stroke="white" stroke-opacity="0.46" stroke-width="3" stroke-linecap="round" stroke-linejoin="round"/>
<path d="M5.16538 26.5001H1.52241" stroke="white" stroke-opacity="0.46" stroke-width="3" stroke-linecap="round" stroke-linejoin="round"/>
<path d="M5.89316 32.0228L2.37331 32.966" stroke="white" stroke-opacity="0.46" stroke-width="3" stroke-linecap="round" stroke-linejoin="round"/>
<path d="M8.02355 37.1671L4.86865 38.9897" stroke="white" stroke-opacity="0.46" stroke-width="3" stroke-linecap="round" stroke-linejoin="round"/>
<path d="M11.4159 41.5864L8.8392 44.1631" stroke="white" stroke-opacity="0.46" stroke-width="3" stroke-linecap="round" stroke-linejoin="round"/>
<path d="M15.8326 44.9764L14.0123 48.1313" stroke="white" stroke-opacity="0.46" stroke-width="3" stroke-linecap="round" stroke-linejoin="round"/>
<path d="M20.9795 47.1069L20.0363 50.6267" stroke="white" stroke-opacity="0.46" stroke-width="3" stroke-linecap="round" stroke-linejoin="round"/>
<path d="M26.5 47.8346V51.4776" stroke="white" stroke-opacity="0.46" stroke-width="3" stroke-linecap="round" stroke-linejoin="round"/>
<path d="M32.0227 47.1069L32.9659 50.6267" stroke="white" stroke-opacity="0.46" stroke-width="3" stroke-linecap="round" stroke-linejoin="round"/>
<path d="M37.1674 44.9764L38.99 48.1313" stroke="white" stroke-opacity="0.46" stroke-width="3" stroke-linecap="round" stroke-linejoin="round"/>
<path d="M41.5863 41.5864L44.163 44.1631" stroke="white" stroke-opacity="0.46" stroke-width="3" stroke-linecap="round" stroke-linejoin="round"/>
<path d="M44.9765 37.1671L48.1314 38.9897" stroke="white" stroke-opacity="0.46" stroke-width="3" stroke-linecap="round" stroke-linejoin="round"/>
<path d="M47.1069 32.0228L50.6267 32.966" stroke="white" stroke-opacity="0.46" stroke-width="3" stroke-linecap="round" stroke-linejoin="round"/>
<path d="M47.8346 26.5001H51.4776" stroke="white" stroke-opacity="0.46" stroke-width="3" stroke-linecap="round" stroke-linejoin="round"/>
<path d="M47.1069 20.9795L50.6267 20.0363" stroke="white" stroke-opacity="0.46" stroke-width="3" stroke-linecap="round" stroke-linejoin="round"/>
<path d="M44.9765 15.8328L48.1314 14.0124" stroke="white" stroke-opacity="0.46" stroke-width="3" stroke-linecap="round" stroke-linejoin="round"/>
<path d="M41.5863 11.4158L44.163 8.83907" stroke="white" stroke-opacity="0.46" stroke-width="3" stroke-linecap="round" stroke-linejoin="round"/>
<path d="M37.1674 8.02343L38.99 4.86853" stroke="white" stroke-opacity="0.46" stroke-width="3" stroke-linecap="round" stroke-linejoin="round"/>
<path d="M32.0227 5.89316L32.9659 2.37331" stroke="white" stroke-opacity="0.46" stroke-width="3" stroke-linecap="round" stroke-linejoin="round"/>
</svg>
