<svg width="37" height="29" viewBox="0 0 37 29" fill="none" xmlns="http://www.w3.org/2000/svg">
<g clip-path="url(#clip0_30_1254)">
<path d="M17.008 0.0674916C17.3028 0.186437 17.5109 0.446984 17.563 0.752843L18.3781 5.5503L23.2748 6.34894C23.587 6.39991 23.853 6.60382 23.9744 6.89269C24.0958 7.18155 24.0611 7.51007 23.8819 7.76495L21.6561 10.8802C21.5289 10.8745 21.4017 10.8689 21.2688 10.8689C19.9217 10.8689 18.6614 11.22 17.5688 11.8374V11.7751C17.5688 8.77316 15.0828 6.33761 12.0188 6.33761C8.95469 6.33761 6.46875 8.77316 6.46875 11.7751C6.46875 14.7771 8.95469 17.2126 12.0188 17.2126C12.487 17.2126 12.938 17.156 13.3716 17.0483C11.2556 18.0735 9.71203 20.056 9.33625 22.4235L7.92563 23.3864C7.66547 23.562 7.33016 23.6017 7.03531 23.4771C6.74047 23.3525 6.53235 23.0976 6.48031 22.7917L5.67094 18.0056L0.774221 17.2069C0.462033 17.156 0.196096 16.9521 0.0746895 16.6632C-0.0467168 16.3743 -0.0120293 16.0458 0.167189 15.7909L3.03469 11.7808L0.167189 7.77062C-0.0178105 7.51573 -0.052498 7.18722 0.0746895 6.89835C0.201877 6.60948 0.462033 6.40558 0.774221 6.3546L5.67094 5.55597L6.4861 0.758507C6.53813 0.452648 6.74625 0.192101 7.0411 0.0731557C7.33594 -0.0457896 7.67125 -0.0118052 7.93141 0.163781L12.0245 2.97316L16.1177 0.163781C16.3778 -0.0174693 16.7131 -0.0514537 17.008 0.0731557V0.0674916ZM8.32453 11.7808C8.32453 10.8194 8.71435 9.89733 9.40824 9.21751C10.1021 8.53769 11.0432 8.15577 12.0245 8.15577C13.0058 8.15577 13.9469 8.53769 14.6408 9.21751C15.3347 9.89733 15.7245 10.8194 15.7245 11.7808C15.7245 12.7422 15.3347 13.6642 14.6408 14.344C13.9469 15.0239 13.0058 15.4058 12.0245 15.4058C11.0432 15.4058 10.1021 15.0239 9.40824 14.344C8.71435 13.6642 8.32453 12.7422 8.32453 11.7808ZM36.9938 24.4626C36.9938 26.9661 34.9241 28.9939 32.3688 28.9939H16.6495C13.5855 28.9939 11.0995 26.5583 11.0995 23.5564C11.0995 20.8603 13.0998 18.6286 15.7245 18.1982V18.1245C15.7245 15.1226 18.2105 12.687 21.2745 12.687C23.2922 12.687 25.0555 13.7405 26.0267 15.3151C26.7783 14.7997 27.6917 14.4995 28.6745 14.4995C31.2298 14.4995 33.2995 16.5273 33.2995 19.0308C33.2995 19.365 33.2648 19.6935 33.1897 20.005C35.3519 20.3845 36.9938 22.2366 36.9938 24.4626Z" fill="#0E2646"/>
</g>
<defs>
<clipPath id="clip0_30_1254">
<rect width="37" height="29" fill="white"/>
</clipPath>
</defs>
</svg>
